<svg version="1.2" xmlns="http://www.w3.org/2000/svg" viewBox="0 0 483 251" width="483" height="251">
	<title>ef-coer-logo-svg</title>
	<style>
		.s0 { fill: #000000 } 
		.s1 { fill: #ffffff } 
		.s2 { fill: none;stroke: #ffffff;stroke-width: 7 } 
	</style>
	<path id="Layer" class="s0" d="m0 0h484v249h-484z"/>
	<g id="Layer">
		<path id="Layer" class="s1" d="m68.2 180v-109.1h65.8v11.7h-52.6v36.9h49.2v11.7h-49.2v37.1h53.5v11.7z"/>
	</g>
	<g id="Layer">
		<path id="Layer" fill-rule="evenodd" class="s1" d="m254.2 125.7v4.7h-24.2v-4.7zm29.8 28.2q-5.9 0-10.2-2.9-4.3-2.9-6.7-8-2.4-5.1-2.4-11.6 0-6.6 2.4-11.7 2.4-5.1 6.8-8 4.3-2.9 10-2.9 4.4 0 7.9 1.7 3.6 1.6 5.9 4.7 2.3 3.1 2.9 7.1h-5.1q-0.8-3.7-3.9-6.3-3-2.6-7.6-2.6-4.2 0-7.4 2.2-3.2 2.3-5 6.3-1.8 4-1.8 9.3 0 5.3 1.7 9.4 1.8 4.1 5 6.4 3.2 2.3 7.5 2.3 2.9 0 5.3-1.1 2.4-1.1 4-3.1 1.6-2 2.2-4.8h5.1q-0.6 3.9-2.8 7-2.2 3.1-5.8 4.8-3.5 1.8-8 1.8zm44.4 0q-5.6 0-10-2.9-4.3-2.8-6.7-7.9-2.5-5.1-2.5-11.7 0-6.7 2.5-11.8 2.4-5.1 6.7-8 4.4-2.8 10-2.8 5.7 0 10 2.8 4.3 2.9 6.7 8 2.5 5.1 2.5 11.8 0 6.6-2.4 11.7-2.5 5.1-6.8 7.9-4.3 2.9-10 2.9zm0-4.6q4.6 0 7.7-2.5 3.2-2.4 4.8-6.5 1.6-4 1.6-8.9 0-4.9-1.6-9-1.6-4.1-4.8-6.6-3.1-2.4-7.7-2.4-4.5 0-7.7 2.4-3.1 2.5-4.8 6.6-1.6 4.1-1.6 9 0 4.9 1.6 8.9 1.7 4.1 4.8 6.5 3.2 2.5 7.7 2.5zm30.3 3.7v-43.6h4.9v6.7h0.4q1.3-3.3 4.5-5.3 3.3-2.1 7.4-2.1 0.7 0 1.4 0 0.8 0.1 1.3 0.1v5.1q-0.3 0-1.2-0.1-0.8-0.1-1.8-0.1-3.4 0-6.1 1.4-2.7 1.4-4.2 4-1.5 2.5-1.5 5.7v28.2zm44.8 0.9q-6.1 0-10.6-2.8-4.4-2.9-6.9-8-2.4-5-2.4-11.7 0-6.6 2.4-11.7 2.5-5.1 6.8-8 4.3-2.9 9.9-2.9 3.6 0 6.9 1.3 3.3 1.3 5.9 3.9 2.6 2.7 4.2 6.7 1.5 4 1.5 9.5v2.5h-32.5q0.1 4.8 1.8 8.5 1.8 3.8 5.1 5.9 3.4 2.2 7.9 2.2 3.1 0 5.4-1 2.4-1 4-2.6 1.6-1.6 2.4-3.6l4.8 1.6q-1 2.7-3.2 5.1-2.3 2.3-5.7 3.7-3.3 1.4-7.7 1.4zm-14.8-21.2q0-0.3 0-0.6v-2.7q0-0.6 0-1.2h-1.6v4.5zm27.3-4.5q0-4.2-1.7-7.5-1.6-3.4-4.7-5.4-2.9-1.9-6.9-1.9-4.1 0-7.3 2.2-3.1 2.2-4.9 5.8-1.5 3.2-1.8 6.8z"/>
	</g>
	<g id="Layer">
		<path id="Layer" class="s1" d="m158.2 180v-109.1h65.4v11.7h-52.2v36.9h47.3v11.7h-47.3v48.8z"/>
	</g>
	<path id="Layer" class="s2" d="m3.5 4.5h477v240h-477z"/>
	<path id="Layer" class="s0" d="m44 240h397v10h-397z"/>
	<g id="Layer">
		<path id="Layer" class="s0" d="m34 158h102v5h-102z"/>
	</g>
	<g id="Layer">
		<path id="Layer" class="s0" d="m34 109h102v5h-102z"/>
	</g>
	<g id="Layer">
		<path id="Layer" class="s0" d="m150 137h241v5h-241z"/>
	</g>
	<g id="Layer">
		<path id="Layer" class="s0" d="m136 92h216v5h-216z"/>
	</g>
	<path id="Layer" class="s0" d="m44 1h397v10h-397z"/>
</svg>